<svg xmlns="http://www.w3.org/2000/svg" x="0px" y="0px"
width="100" height="100"
viewBox="0 0 226 226"
style=" fill:#000000;"><g fill="none" fill-rule="nonzero" stroke="none" stroke-width="1" stroke-linecap="butt" stroke-linejoin="miter" stroke-miterlimit="10" stroke-dasharray="" stroke-dashoffset="0" font-family="none" font-weight="none" font-size="none" text-anchor="none" style="mix-blend-mode: normal"><path d="M0,226v-226h226v226z" fill="none"></path><g id="Layer_1"><path d="M137.71875,218.9375v-19.42187c0,-6.88594 2.64844,-13.41875 7.23906,-18.3625l47.49531,-50.32031c6.53281,-6.88594 6.88594,-17.65625 0.52969,-24.54219c-7.0625,-7.59219 -18.89219,-7.41563 -25.77812,-0.17656l-23.83594,25.24844c2.29531,-3.17812 4.59062,-6.17969 7.0625,-9.18125l44.31719,-51.20312c7.0625,-8.12188 6.17969,-20.30469 -1.94219,-27.36719c-8.12187,-7.0625 -20.30469,-6.17969 -27.36719,1.94219l-44.31719,51.20313c-1.05937,1.23594 -2.11875,2.47187 -3.17812,3.88438c3.00156,-5.47344 6.35625,-10.94688 10.06406,-16.06719l32.66406,-46.96563c6.17969,-8.82812 3.88438,-20.83438 -4.76719,-27.01406c-8.82812,-6.17969 -20.83437,-3.88438 -27.01406,4.76719l-32.84063,46.96563c-1.76562,2.64844 -3.53125,5.29688 -5.29687,7.94531l17.83281,-34.25312c4.94375,-9.53438 1.76563,-21.54062 -7.59219,-26.66094c-9.53437,-5.29687 -21.54063,-1.58906 -26.48437,8.12187l-18.18594,35.13594c-10.24063,19.42187 -17.47969,40.43281 -21.71719,61.97344l-5.29687,25.425c-4.06094,19.59844 -5.47344,39.72656 -4.06094,59.67812l-4.06094,19.24531v5.29688h116.53125z" fill="#fffaf0"></path><path d="M137.71875,224.23438c-3.00156,0 -5.29687,-2.29531 -5.29687,-5.29687v-19.42187c0,-8.29844 3.17812,-16.06719 8.82813,-22.07031l47.84844,-50.67344c4.59062,-4.94375 4.41406,-12.7125 -0.52969,-17.47969c-2.47188,-2.29531 -5.47344,-3.53125 -8.82812,-3.35469c-3.35469,0.17656 -6.35625,1.4125 -8.65156,3.88438l-23.83594,25.24844c-1.94219,1.94219 -5.12031,2.29531 -7.23906,0.52969c-2.11875,-1.76562 -2.64844,-4.94375 -1.05937,-7.0625c2.47188,-3.35469 4.94375,-6.70937 7.41563,-9.53438l44.31719,-51.20312c5.12031,-5.82656 4.41406,-14.83125 -1.4125,-19.95156c-5.82656,-5.12031 -14.83125,-4.41406 -19.95156,1.4125l-44.31719,51.20313c-0.88281,1.05938 -1.76562,2.11875 -2.64844,3.35469l-0.35313,0.35313c-1.76562,2.11875 -4.76719,2.64844 -7.0625,1.05938c-2.29531,-1.58906 -3.00156,-4.59063 -1.58906,-6.88594c3.17813,-5.82656 6.70938,-11.3 10.24063,-16.59687l32.66406,-46.96562c2.11875,-3.17813 3.00156,-6.88594 2.29531,-10.59375c-0.70625,-3.70781 -2.64844,-6.88594 -5.82656,-9.18125c-3.17812,-2.11875 -6.88594,-3.00156 -10.59375,-2.29531c-3.70781,0.70625 -6.88594,2.64844 -9.18125,5.82656l-32.4875,46.96563c-1.58906,2.29531 -3.35469,4.76719 -5.12031,7.76875c-1.58906,2.47187 -4.59063,3.17812 -7.0625,1.76563c-2.47187,-1.4125 -3.35469,-4.59063 -2.11875,-7.0625l18.18594,-34.95937c1.76563,-3.35469 2.11875,-7.23906 0.88281,-10.77031c-1.05938,-3.53125 -3.53125,-6.53281 -6.88594,-8.29844c-3.35469,-1.76562 -7.23906,-2.11875 -10.77031,-0.88281c-3.53125,1.05937 -6.53281,3.53125 -8.29844,6.88594l-18.3625,35.13594c-9.8875,18.89219 -17.12656,39.37344 -21.1875,60.56094c-0.52969,2.825 -3.35469,4.76719 -6.17969,4.2375c-2.825,-0.52969 -4.76719,-3.35469 -4.2375,-6.17969c4.41406,-22.07031 11.82969,-43.43437 22.24688,-63.38594l18.3625,-35.3125c3.00156,-5.82656 8.12188,-10.24062 14.47812,-12.18281c6.35625,-1.94219 13.06562,-1.4125 18.89219,1.58906c5.82656,3.00156 10.24062,8.12187 12.18281,14.47812c0.52969,1.58906 0.88281,3.17813 1.05937,4.94375l7.94531,-11.47656c3.70781,-5.47344 9.35781,-9.00469 15.89063,-10.24062c6.53281,-1.23594 13.06563,0.35313 18.53906,4.06094c5.47344,3.70781 9.00469,9.35781 10.24062,15.89063c0.88281,5.29688 0.17656,10.41719 -2.11875,15.18438c9.00469,-5.65 20.83437,-4.94375 29.13281,2.29531c10.24062,8.82813 11.47656,24.54219 2.64844,34.78281l-18.00937,21.01094c5.65,0.17656 10.94688,2.29531 15.18437,6.17969c9.18125,8.65156 9.53438,23.30625 0.88281,32.4875l-47.84844,50.67344c-3.70781,4.06094 -5.82656,9.18125 -5.82656,14.65469v19.42188c-0.17656,3.17812 -2.47188,5.47344 -5.47344,5.47344z" fill="#444b54"></path><path d="M72.92031,201.28125h92.69531c9.00469,0 16.24375,-7.23906 16.24375,-16.24375v-161.90781c0,-9.00469 -7.23906,-16.24375 -16.24375,-16.24375l-94.6375,0.17656c-9.00469,0 -16.24375,7.23906 -16.24375,16.24375l0.52969,160.49531c0,9.53437 7.94531,17.47969 17.65625,17.47969z" fill="#fffaf0"></path><path d="M137.89531,114.58906c0,-6.53281 -3.17812,-12.53594 -8.475,-16.24375l-16.42031,-11.3c-2.29531,-1.76562 -3.70781,-4.41406 -3.70781,-7.41563c0,-4.94375 4.06094,-9.00469 9.00469,-9.00469c3.70781,0 6.88594,2.11875 8.29844,5.47344c1.05937,2.64844 4.2375,3.88438 6.88594,2.825c2.64844,-1.05938 3.88438,-4.2375 2.825,-6.88594c-2.29531,-5.65 -7.0625,-9.71094 -12.7125,-11.3v-0.70625c0,-3.00156 -2.29531,-5.29687 -5.29687,-5.29687c-3.00156,0 -5.29687,2.29531 -5.29687,5.29688v0.70625c-8.29844,2.29531 -14.30156,9.8875 -14.30156,18.89219c0,6.35625 3.00156,12.18281 8.29844,15.89063l16.42031,11.47656c2.47188,1.76563 3.88438,4.41406 3.88438,7.41563c0,4.94375 -4.06094,9.00469 -9.00469,9.00469c-1.4125,0 -2.64844,-0.35313 -3.88438,-0.88281c-1.94219,-0.88281 -3.53125,-2.47188 -4.41406,-4.59062c-1.23594,-2.64844 -4.2375,-3.88438 -6.88594,-2.825c-2.64844,1.23594 -3.88438,4.2375 -2.825,6.88594c1.94219,4.41406 5.29688,7.76875 9.53437,9.8875c1.05938,0.52969 2.11875,0.88281 3.17813,1.05937v1.23594c0,3.00156 2.29531,5.29688 5.29688,5.29688c3.00156,0 5.29688,-2.29531 5.29688,-5.29687v-0.70625c8.29844,-2.29531 14.30156,-9.8875 14.30156,-18.89219z" fill="#e67e22"></path><path d="M120.0625,167.73438c-4.87564,0 -8.82812,3.95249 -8.82812,8.82813c0,4.87564 3.95249,8.82813 8.82813,8.82813c4.87564,0 8.82813,-3.95249 8.82813,-8.82812c0,-4.87564 -3.95249,-8.82812 -8.82812,-8.82812z" fill="#444b54"></path><path d="M165.61563,206.57813h-62.15c-3.00156,0 -5.29687,-2.29531 -5.29687,-5.29687c0,-3.00156 2.29531,-5.29687 5.29688,-5.29687h62.15c6.00313,0 10.94688,-4.94375 10.94688,-10.94688v-161.73125c0,-6.00313 -4.94375,-10.94687 -10.94688,-10.94687h-94.6375c-6.00313,0 -10.94688,4.94375 -10.94688,10.94688v61.26719c0,3.00156 -2.29531,5.29688 -5.29687,5.29688c-3.00156,0 -5.29687,-2.29531 -5.29687,-5.29687v-61.26719c0,-11.82969 9.71094,-21.54062 21.54063,-21.54062h94.81406c11.82969,0 21.54063,9.71094 21.54063,21.54063v161.90781c-0.17656,11.65312 -9.8875,21.36406 -21.71719,21.36406z" fill="#444b54"></path><path d="M22.07031,218.9375c-9.71094,-41.31563 6.35625,-75.92187 33.01719,-105.76094l7.41562,-8.29844c5.82656,-6.53281 15.89063,-7.23906 22.42344,-1.4125c6.53281,5.82656 7.23906,15.89063 1.4125,22.42344l-7.59219,8.29844c-19.95156,22.42344 -18.3625,44.14063 -5.12031,67.09375" fill="#fffaf0"></path><path d="M22.07031,224.23438c-2.47188,0 -4.59062,-1.58906 -5.12031,-4.06094c-8.82812,-38.31406 2.29531,-74.50938 34.25312,-110.52812l7.41563,-8.29844c3.70781,-4.2375 9.00469,-6.70937 14.65469,-7.0625c5.65,-0.35313 11.12344,1.58906 15.36094,5.29688c4.2375,3.70781 6.70937,9.00469 7.0625,14.65469c0.35313,5.65 -1.58906,11.12344 -5.29687,15.36094l-7.59219,8.12187c-16.59687,18.71562 -18.00937,37.60781 -4.59063,60.91406c1.4125,2.47188 0.52969,5.82656 -1.94219,7.23906c-2.47187,1.4125 -5.82656,0.52969 -7.23906,-1.94219c-15.89062,-27.54375 -14.125,-50.85 5.82656,-73.27344l7.41563,-8.29844c1.94219,-2.11875 2.825,-4.76719 2.64844,-7.59219c-0.17656,-2.825 -1.4125,-5.47344 -3.53125,-7.23906c-2.11875,-1.76562 -4.76719,-2.825 -7.59219,-2.64844c-2.825,0.17656 -5.47344,1.4125 -7.23906,3.53125l-7.41563,8.29844c-29.48594,33.19375 -39.90313,66.3875 -31.78125,100.99375c0.70625,2.825 -1.05937,5.65 -3.88437,6.35625c-0.70625,0.17656 -1.05937,0.17656 -1.4125,0.17656z" fill="#444b54"></path></g></g></svg>